<svg width="76" height="76" viewBox="0 0 76 76" fill="none" xmlns="http://www.w3.org/2000/svg">
<path d="M51.3023 6.7049C51.1517 7.64644 51.0763 8.58797 51.0763 9.52952C51.0763 18.0034 57.9308 24.854 66.367 24.854C67.3085 24.854 68.2124 24.7448 69.1539 24.5942V54.9833C69.1539 67.7544 61.6216 75.3243 48.8166 75.3243H20.9885C8.17978 75.3243 0.647461 67.7544 0.647461 54.9833V27.1175C0.647461 14.3125 8.17978 6.7049 20.9885 6.7049H51.3023ZM52.0593 29.6031C51.0387 29.4902 50.0256 29.9421 49.4192 30.7707L40.3089 42.5587L29.8729 34.3485C29.2326 33.8589 28.4794 33.6668 27.7262 33.7459C26.9767 33.8589 26.2988 34.2694 25.8431 34.872L14.699 49.3755L14.4693 49.7144C13.829 50.9159 14.1303 52.46 15.2602 53.2923C15.7874 53.6313 16.3523 53.8572 16.9926 53.8572C17.8626 53.8949 18.6874 53.4392 19.2146 52.7274L28.6677 40.5589L39.4012 48.6223L39.7402 48.8445C40.9454 49.4847 42.4518 49.1872 43.3181 48.0536L54.2023 34.0096L54.0516 34.0849C54.6542 33.2563 54.7672 32.2018 54.3529 31.2603C53.9424 30.3187 53.0347 29.6785 52.0593 29.6031ZM66.8946 0C71.9036 0 75.971 4.06745 75.971 9.07645C75.971 14.0854 71.9036 18.1529 66.8946 18.1529C61.8856 18.1529 57.8181 14.0854 57.8181 9.07645C57.8181 4.06745 61.8856 0 66.8946 0Z" fill="url(#paint0_linear)"/>
<defs>
<linearGradient id="paint0_linear" x1="38.3092" y1="0" x2="38.3092" y2="75.3243" gradientUnits="userSpaceOnUse">
<stop stop-color="#5181B8"/>
<stop offset="1" stop-color="#7EBAFF"/>
</linearGradient>
</defs>
</svg>
