<svg width="80" height="75" viewBox="0 0 80 75" fill="none" xmlns="http://www.w3.org/2000/svg">
<path d="M30.1678 49.4021C46.2209 49.4021 59.773 52.0435 59.773 62.2451C59.773 72.4466 46.134 75 30.1678 75C14.1146 75 0.5625 72.3546 0.5625 62.157C0.5625 51.9555 14.1976 49.4021 30.1678 49.4021ZM67.6637 19.7368C69.6225 19.7368 71.2123 21.3531 71.2123 23.3353V27.9784H75.9613C77.9161 27.9784 79.5099 29.5946 79.5099 31.5769C79.5099 33.5591 77.9161 35.1754 75.9613 35.1754H71.2123V39.8226C71.2123 41.8048 69.6225 43.4211 67.6637 43.4211C65.7089 43.4211 64.1151 41.8048 64.1151 39.8226V35.1754H59.3742C57.4154 35.1754 55.8257 33.5591 55.8257 31.5769C55.8257 29.5946 57.4154 27.9784 59.3742 27.9784H64.1151V23.3353C64.1151 21.3531 65.7089 19.7368 67.6637 19.7368ZM30.1678 0C41.0411 0 49.7571 8.8288 49.7571 19.8428C49.7571 30.8568 41.0411 39.6856 30.1678 39.6856C19.2945 39.6856 10.5784 30.8568 10.5784 19.8428C10.5784 8.8288 19.2945 0 30.1678 0Z" fill="url(#paint0_linear)"/>
<defs>
<linearGradient id="paint0_linear" x1="40.0362" y1="0" x2="40.0362" y2="75" gradientUnits="userSpaceOnUse">
<stop stop-color="#5181B8"/>
<stop offset="1" stop-color="#7EBAFF"/>
</linearGradient>
</defs>
</svg>
