<svg width="86" height="84" viewBox="0 0 86 84" fill="none" xmlns="http://www.w3.org/2000/svg">
<g filter="url(#filter0_d)">
<path d="M57.551 57.6129H76.8207C75.2026 36.2594 66.0091 22.9961 54.2168 15.151L59.5858 3.43226C59.7481 3.06041 59.8156 2.65409 59.7822 2.24973C59.7488 1.84538 59.6156 1.45564 59.3945 1.11546C59.1733 0.77528 58.8713 0.495295 58.5153 0.300614C58.1593 0.105932 57.7606 0.00263963 57.3549 0H23.7433C23.3375 0.00263963 22.9388 0.105932 22.5828 0.300614C22.2269 0.495295 21.9248 0.77528 21.7037 1.11546C21.4826 1.45564 21.3493 1.84538 21.3159 2.24973C21.2825 2.65409 21.35 3.06041 21.5123 3.43226L24.4542 9.80645H49.2645L47.0581 14.7097H42.5226C43.9078 18.4343 44.9259 22.2852 45.5626 26.2077C45.975 28.6409 46.237 31.0972 46.3471 33.5626L42.4736 36.2839C42.4841 33.1128 42.2216 29.9467 41.6891 26.8206C41.0116 22.6602 39.843 18.5948 38.2078 14.7097H35.7562C33.4937 17.5684 31.4607 20.6015 29.6762 23.7806C28.2373 26.5077 27.0159 29.344 26.0233 32.2632L22.6646 30.0323C23.6449 27.2108 24.8501 24.4726 26.2684 21.8439C27.7015 19.3789 29.2731 16.997 30.9755 14.7097H26.6852L26.8813 15.1265C13.8878 23.7806 4.00778 38.9806 4.00778 64.3548C3.97465 64.8882 4.04754 65.4229 4.22224 65.9279C4.39693 66.433 4.66997 66.8984 5.02558 67.2973C5.38119 67.6963 5.81232 68.0208 6.29407 68.2521C6.77581 68.4835 7.29862 68.617 7.8323 68.6452H27.4452C26.603 67.7687 26.0216 66.675 25.7659 65.4867C25.5103 64.2983 25.5905 63.0623 25.9977 61.917C26.405 60.7718 27.123 59.7625 28.0715 59.0023C29.0199 58.2421 30.1613 57.761 31.3678 57.6129C30.7806 56.6172 30.4677 55.4837 30.4607 54.3277C30.4607 52.5722 31.1581 50.8885 32.3994 49.6472C33.6408 48.4058 35.3245 47.7084 37.08 47.7084H51.7897C53.5453 47.7084 55.2289 48.4058 56.4703 49.6472C57.7117 50.8885 58.4091 52.5722 58.4091 54.3277C58.4217 55.4798 58.1254 56.6142 57.551 57.6129Z" fill="url(#paint0_linear)"/>
<path d="M49.484 63.7419C49.484 63.0917 49.2257 62.4681 48.7659 62.0083C48.3062 61.5486 47.6826 61.2903 47.0324 61.2903H32.3227C31.6725 61.2903 31.0489 61.5486 30.5892 62.0083C30.1294 62.4681 29.8711 63.0917 29.8711 63.7419C29.8711 64.3921 30.1294 65.0157 30.5892 65.4755C31.0489 65.9352 31.6725 66.1935 32.3227 66.1935H47.0324C47.6826 66.1935 48.3062 65.9352 48.7659 65.4755C49.2257 65.0157 49.484 64.3921 49.484 63.7419Z" fill="#7EBAFF"/>
<path d="M51.7892 51.4839H37.0795C36.4293 51.4839 35.8058 51.7422 35.346 52.2019C34.8862 52.6617 34.6279 53.2853 34.6279 53.9355C34.6279 54.5857 34.8862 55.2093 35.346 55.6691C35.8058 56.1288 36.4293 56.3871 37.0795 56.3871H51.7892C52.4394 56.3871 53.063 56.1288 53.5228 55.6691C53.9825 55.2093 54.2408 54.5857 54.2408 53.9355C54.2408 53.2853 53.9825 52.6617 53.5228 52.2019C53.063 51.7422 52.4394 51.4839 51.7892 51.4839Z" fill="#7EBAFF"/>
<path d="M50.466 71.0967H35.7563C35.1061 71.0967 34.4825 71.355 34.0227 71.8147C33.563 72.2745 33.3047 72.8981 33.3047 73.5483C33.3047 74.1985 33.563 74.8221 34.0227 75.2818C34.4825 75.7416 35.1061 75.9999 35.7563 75.9999H50.466C51.1162 75.9999 51.7398 75.7416 52.1995 75.2818C52.6593 74.8221 52.9176 74.1985 52.9176 73.5483C52.9176 72.8981 52.6593 72.2745 52.1995 71.8147C51.7398 71.355 51.1162 71.0967 50.466 71.0967Z" fill="#7EBAFF"/>
<path d="M76.6988 71.0967H59.5376C58.8873 71.0967 58.2638 71.355 57.804 71.8147C57.3442 72.2745 57.0859 72.8981 57.0859 73.5483C57.0859 74.1985 57.3442 74.8221 57.804 75.2818C58.2638 75.7416 58.8873 75.9999 59.5376 75.9999H76.6988C77.349 75.9999 77.9726 75.7416 78.4324 75.2818C78.8922 74.8221 79.1505 74.1985 79.1505 73.5483C79.1505 72.8981 78.8922 72.2745 78.4324 71.8147C77.9726 71.355 77.349 71.0967 76.6988 71.0967Z" fill="#7EBAFF"/>
<path d="M79.15 61.2903H61.9887C61.3385 61.2903 60.7149 61.5486 60.2552 62.0083C59.7954 62.4681 59.5371 63.0917 59.5371 63.7419C59.5371 64.3921 59.7954 65.0157 60.2552 65.4755C60.7149 65.9352 61.3385 66.1935 61.9887 66.1935H79.15C79.8002 66.1935 80.4238 65.9352 80.8836 65.4755C81.3433 65.0157 81.6016 64.3921 81.6016 63.7419C81.6016 63.0917 81.3433 62.4681 80.8836 62.0083C80.4238 61.5486 79.8002 61.2903 79.15 61.2903Z" fill="#7EBAFF"/>
</g>
<defs>
<filter id="filter0_d" x="0" y="0" width="85.6016" height="83.9999" filterUnits="userSpaceOnUse" color-interpolation-filters="sRGB">
<feFlood flood-opacity="0" result="BackgroundImageFix"/>
<feColorMatrix in="SourceAlpha" type="matrix" values="0 0 0 0 0 0 0 0 0 0 0 0 0 0 0 0 0 0 127 0"/>
<feOffset dy="4"/>
<feGaussianBlur stdDeviation="2"/>
<feColorMatrix type="matrix" values="0 0 0 0 0 0 0 0 0 0 0 0 0 0 0 0 0 0 0.25 0"/>
<feBlend mode="normal" in2="BackgroundImageFix" result="effect1_dropShadow"/>
<feBlend mode="normal" in="SourceGraphic" in2="effect1_dropShadow" result="shape"/>
</filter>
<linearGradient id="paint0_linear" x1="40.4103" y1="0" x2="40.4103" y2="68.6452" gradientUnits="userSpaceOnUse">
<stop stop-color="#5181B8"/>
<stop offset="1" stop-color="#7EBAFF"/>
</linearGradient>
</defs>
</svg>
