<svg width="78" height="75" viewBox="0 0 78 75" fill="none" xmlns="http://www.w3.org/2000/svg">
<path d="M34.32 57.8063C34.32 59.05 33.8269 60.2427 32.9493 61.1221C32.0716 62.0015 30.8812 62.4955 29.64 62.4955H21.84V70.3108C21.84 71.5545 21.3469 72.7472 20.4693 73.6266C19.5916 74.506 18.4012 75 17.16 75C15.9188 75 14.7284 74.506 13.8507 73.6266C12.9731 72.7472 12.48 71.5545 12.48 70.3108V62.4955H4.68C3.43879 62.4955 2.24841 62.0015 1.37074 61.1221C0.49307 60.2427 0 59.05 0 57.8063C0 56.5627 0.49307 55.3699 1.37074 54.4906C2.24841 53.6112 3.43879 53.1171 4.68 53.1171H12.48V45.3018C12.48 44.0582 12.9731 42.8655 13.8507 41.9861C14.7284 41.1067 15.9188 40.6126 17.16 40.6126C18.4012 40.6126 19.5916 41.1067 20.4693 41.9861C21.3469 42.8655 21.84 44.0582 21.84 45.3018V53.1171H29.64C30.8812 53.1171 32.0716 53.6112 32.9493 54.4906C33.8269 55.3699 34.32 56.5627 34.32 57.8063ZM29.64 9.35137H4.68C3.43879 9.35137 2.24841 9.84541 1.37074 10.7248C0.49307 11.6042 0 12.7969 0 14.0406C0 15.2842 0.49307 16.4769 1.37074 17.3563C2.24841 18.2357 3.43879 18.7297 4.68 18.7297H29.64C30.8812 18.7297 32.0716 18.2357 32.9493 17.3563C33.8269 16.4769 34.32 15.2842 34.32 14.0406C34.32 12.7969 33.8269 11.6042 32.9493 10.7248C32.0716 9.84541 30.8812 9.35137 29.64 9.35137ZM48.36 54.706H73.32C74.5612 54.706 75.7516 54.2119 76.6293 53.3325C77.5069 52.4532 78 51.2604 78 50.0168C78 48.7731 77.5069 47.5804 76.6293 46.701C75.7516 45.8216 74.5612 45.3276 73.32 45.3276H48.36C47.1188 45.3276 45.9284 45.8216 45.0507 46.701C44.1731 47.5804 43.68 48.7731 43.68 50.0168C43.68 51.2604 44.1731 52.4532 45.0507 53.3325C45.9284 54.2119 47.1188 54.706 48.36 54.706ZM73.32 60.9066H48.36C47.1188 60.9066 45.9284 61.4007 45.0507 62.2801C44.1731 63.1595 43.68 64.3522 43.68 65.5958C43.68 66.8395 44.1731 68.0322 45.0507 68.9116C45.9284 69.791 47.1188 70.285 48.36 70.285H73.32C74.5612 70.285 75.7516 69.791 76.6293 68.9116C77.5069 68.0322 78 66.8395 78 65.5958C78 64.3522 77.5069 63.1595 76.6293 62.2801C75.7516 61.4007 74.5612 60.9066 73.32 60.9066ZM48.1708 26.7346C49.0485 27.6139 50.2388 28.1079 51.48 28.1079C52.7212 28.1079 53.9115 27.6139 54.7891 26.7346L60.84 20.6722L66.8908 26.7346C67.7709 27.6021 68.9575 28.0861 70.1921 28.0811C71.4267 28.076 72.6093 27.5824 73.4823 26.7077C74.3553 25.833 74.848 24.6481 74.853 23.411C74.858 22.174 74.375 20.9851 73.5091 20.1033L67.4587 14.0406L73.5091 7.97783C74.375 7.09602 74.858 5.90712 74.853 4.67009C74.848 3.43307 74.3553 2.24815 73.4823 1.37343C72.6093 0.498715 71.4267 0.00507597 70.1921 3.89275e-05C68.9575 -0.00499812 67.7709 0.478975 66.8908 1.34654L60.84 7.40888L54.7891 1.34654C53.9091 0.478975 52.7225 -0.00499812 51.4879 3.89275e-05C50.2533 0.00507597 49.0707 0.498715 48.1977 1.37343C47.3247 2.24815 46.832 3.43307 46.827 4.67009C46.822 5.90712 47.305 7.09602 48.1708 7.97783L54.2213 14.0406L48.1708 20.1033C47.2932 20.9827 46.8002 22.1753 46.8002 23.4189C46.8002 24.6625 47.2932 25.8552 48.1708 26.7346Z" fill="url(#paint0_linear)"/>
<defs>
<linearGradient id="paint0_linear" x1="39" y1="0" x2="39" y2="75" gradientUnits="userSpaceOnUse">
<stop stop-color="#5181B8"/>
<stop offset="1" stop-color="#7EBAFF"/>
</linearGradient>
</defs>
</svg>
