<svg width="68" height="75" viewBox="0 0 68 75" fill="none" xmlns="http://www.w3.org/2000/svg">
<path d="M49.4663 0C61.05 0 67.5 6.675 67.5 18.1125V56.85C67.5 68.475 61.05 75 49.4663 75H18.0375C6.6375 75 0 68.475 0 56.85V18.1125C0 6.675 6.6375 0 18.0375 0H49.4663ZM19.05 51.525C17.925 51.4125 16.8375 51.9375 16.2375 52.9125C15.6375 53.85 15.6375 55.0875 16.2375 56.0625C16.8375 57 17.925 57.5625 19.05 57.4125H48.45C49.9463 57.2625 51.075 55.9837 51.075 54.4875C51.075 52.95 49.9463 51.675 48.45 51.525H19.05ZM48.45 34.4212H19.05C17.4338 34.4212 16.125 35.7375 16.125 37.35C16.125 38.9625 17.4338 40.275 19.05 40.275H48.45C50.0625 40.275 51.375 38.9625 51.375 37.35C51.375 35.7375 50.0625 34.4212 48.45 34.4212ZM30.2588 17.4375H19.05V17.475C17.4338 17.475 16.125 18.7875 16.125 20.4C16.125 22.0125 17.4338 23.325 19.05 23.325H30.2588C31.875 23.325 33.1875 22.0125 33.1875 20.3587C33.1875 18.75 31.875 17.4375 30.2588 17.4375Z" fill="url(#paint0_linear)"/>
<defs>
<linearGradient id="paint0_linear" x1="33.75" y1="0" x2="33.75" y2="75" gradientUnits="userSpaceOnUse">
<stop stop-color="#5B8EC8"/>
<stop offset="1" stop-color="#7EBAFF"/>
</linearGradient>
</defs>
</svg>
