<svg width="73" height="76" viewBox="0 0 73 76" fill="none" xmlns="http://www.w3.org/2000/svg">
<path d="M18.6455 40.5614H3.5468C1.94137 40.5614 0.603516 39.2809 0.603516 37.6614C0.603516 36.0796 1.94137 34.7615 3.5468 34.7615H18.6455L18.6466 16.7595C18.6466 7.53236 26.4249 0 35.9532 0H54.9321C64.4216 0 72.1609 7.53236 72.1609 16.7218V58.6017C72.1609 67.8289 64.4216 75.3236 54.8543 75.3236H35.9143C26.4249 75.3236 18.6466 67.8289 18.6466 58.6394V40.5617H42.7592L36.5366 46.5876C35.3698 47.7175 35.3698 49.5629 36.5366 50.6928C37.1199 51.2577 37.8978 51.5213 38.6756 51.5213C39.4145 51.5213 40.1923 51.2577 40.7757 50.6928L52.1319 39.7332C52.7153 39.2059 53.0264 38.4527 53.0264 37.6618C53.0264 36.9086 52.7153 36.1553 52.1319 35.628L40.7757 24.6685C39.609 23.5386 37.7033 23.5386 36.5366 24.6685C35.3698 25.7983 35.3698 27.6438 36.5366 28.7736L42.7592 34.7618H18.6466L18.6455 40.5614Z" fill="url(#paint0_linear)"/>
<defs>
<linearGradient id="paint0_linear" x1="36.3822" y1="0" x2="36.3822" y2="75.3236" gradientUnits="userSpaceOnUse">
<stop stop-color="#5181B8"/>
<stop offset="1" stop-color="#7EBAFF"/>
</linearGradient>
</defs>
</svg>
