<svg width="76" height="76" viewBox="0 0 76 76" fill="none" xmlns="http://www.w3.org/2000/svg">
<path d="M41.7391 43.0331C44.5546 43.0331 47.2548 41.9228 49.2456 39.9464C51.2365 37.9701 52.3549 35.2895 52.3549 32.4945C52.3549 29.6994 51.2365 27.0189 49.2456 25.0425C47.2548 23.0661 44.5546 21.9558 41.7391 21.9558H31.7867C31.2588 21.9558 30.7525 22.164 30.3792 22.5346C30.0059 22.9051 29.7962 23.4077 29.7962 23.9318V39.0811H26.4788C25.9509 39.0811 25.4446 39.2893 25.0713 39.6599C24.698 40.0305 24.4883 40.5331 24.4883 41.0571C24.4883 41.5812 24.698 42.0838 25.0713 42.4544C25.4446 42.825 25.9509 43.0331 26.4788 43.0331H29.7962V45.6678H26.4788C25.9509 45.6678 25.4446 45.876 25.0713 46.2466C24.698 46.6171 24.4883 47.1197 24.4883 47.6438C24.4883 48.1679 24.698 48.6705 25.0713 49.0411C25.4446 49.4116 25.9509 49.6198 26.4788 49.6198H29.7962V52.9131C29.7962 53.4372 30.0059 53.9398 30.3792 54.3104C30.7525 54.681 31.2588 54.8891 31.7867 54.8891C32.3146 54.8891 32.8209 54.681 33.1942 54.3104C33.5675 53.9398 33.7772 53.4372 33.7772 52.9131V49.6198H41.0756C41.6035 49.6198 42.1098 49.4116 42.4831 49.0411C42.8563 48.6705 43.0661 48.1679 43.0661 47.6438C43.0661 47.1197 42.8563 46.6171 42.4831 46.2466C42.1098 45.876 41.6035 45.6678 41.0756 45.6678H33.7772V43.0331H41.7391ZM33.7772 25.9078H41.7391C43.4988 25.9078 45.1864 26.6018 46.4307 27.837C47.675 29.0722 48.374 30.7476 48.374 32.4945C48.374 34.2414 47.675 35.9167 46.4307 37.152C45.1864 38.3872 43.4988 39.0811 41.7391 39.0811H33.7772V25.9078Z" fill="url(#paint0_linear)"/>
<path fill-rule="evenodd" clip-rule="evenodd" d="M38 71.25C46.8184 71.25 55.2757 67.7469 61.5113 61.5113C67.7469 55.2757 71.25 46.8184 71.25 38C71.25 29.1816 67.7469 20.7243 61.5113 14.4887C55.2757 8.25311 46.8184 4.75 38 4.75C29.1816 4.75 20.7243 8.25311 14.4887 14.4887C8.25311 20.7243 4.75 29.1816 4.75 38C4.75 46.8184 8.25311 55.2757 14.4887 61.5113C20.7243 67.7469 29.1816 71.25 38 71.25ZM38 76C48.0782 76 57.7437 71.9964 64.8701 64.8701C71.9964 57.7437 76 48.0782 76 38C76 27.9218 71.9964 18.2563 64.8701 11.1299C57.7437 4.00356 48.0782 0 38 0C27.9218 0 18.2563 4.00356 11.1299 11.1299C4.00356 18.2563 0 27.9218 0 38C0 48.0782 4.00356 57.7437 11.1299 64.8701C18.2563 71.9964 27.9218 76 38 76Z" fill="url(#paint1_linear)"/>
<path fill-rule="evenodd" clip-rule="evenodd" d="M38.21 64.3362C45.1387 64.3362 51.7837 61.5837 56.6831 56.6843C61.5825 51.785 64.335 45.14 64.335 38.2112C64.335 31.2824 61.5825 24.6374 56.6831 19.738C51.7837 14.8386 45.1387 12.0862 38.21 12.0862C31.2812 12.0862 24.6362 14.8386 19.7368 19.738C14.8374 24.6374 12.085 31.2824 12.085 38.2112C12.085 45.14 14.8374 51.785 19.7368 56.6843C24.6362 61.5837 31.2812 64.3362 38.21 64.3362ZM38.21 66.7112C41.9526 66.7112 45.6587 65.974 49.1164 64.5417C52.5742 63.1095 55.716 61.0102 58.3625 58.3637C61.009 55.7173 63.1083 52.5754 64.5405 49.1177C65.9728 45.6599 66.71 41.9539 66.71 38.2112C66.71 34.4685 65.9728 30.7625 64.5405 27.3047C63.1083 23.8469 61.009 20.7051 58.3625 18.0586C55.716 15.4122 52.5742 13.3129 49.1164 11.8806C45.6587 10.4484 41.9526 9.71118 38.21 9.71118C30.6513 9.71118 23.4022 12.7139 18.0574 18.0586C12.7126 23.4034 9.70996 30.6525 9.70996 38.2112C9.70996 45.7699 12.7126 53.0189 18.0574 58.3637C23.4022 63.7085 30.6513 66.7112 38.21 66.7112Z" fill="url(#paint2_linear)"/>
<defs>
<linearGradient id="paint0_linear" x1="38.4216" y1="21.9558" x2="38.4216" y2="54.8891" gradientUnits="userSpaceOnUse">
<stop stop-color="#5181B8"/>
<stop offset="1" stop-color="#7EBAFF"/>
</linearGradient>
<linearGradient id="paint1_linear" x1="38" y1="0" x2="38" y2="76" gradientUnits="userSpaceOnUse">
<stop stop-color="#5181B8"/>
<stop offset="1" stop-color="#7EBAFF"/>
</linearGradient>
<linearGradient id="paint2_linear" x1="38.21" y1="9.71118" x2="38.21" y2="66.7112" gradientUnits="userSpaceOnUse">
<stop stop-color="#5181B8"/>
<stop offset="1" stop-color="#7EBAFF"/>
</linearGradient>
</defs>
</svg>
