<svg width="19" height="19" viewBox="0 0 19 19" fill="none" xmlns="http://www.w3.org/2000/svg">
<path fill-rule="evenodd" clip-rule="evenodd" d="M4 0C1.79086 0 0 1.79086 0 4V15C0 17.2091 1.79086 19 4 19H15C17.2091 19 19 17.2091 19 15V4C19 1.79086 17.2091 0 15 0H4ZM13.5385 4.25941C13.6741 4.2025 13.8181 4.16803 13.9647 4.15734C14.1359 4.14866 14.3057 4.19172 14.4522 4.28093C14.6266 4.39051 14.7538 4.56144 14.809 4.76017C14.8624 4.95654 14.8501 5.15886 14.8017 5.37491L13.0958 14.1309L13.0798 14.1721C13.0798 14.1721 12.9835 14.4279 12.7354 14.628C12.4892 14.8266 12.0232 14.9392 11.5632 14.7369L11.5129 14.7154L9.30547 13.0186L7.98841 14.2201L7.97242 14.233C7.97242 14.233 7.68873 14.4527 7.3356 14.3456L7.33243 14.3451C7.31114 14.3417 7.29912 14.3398 7.28169 14.335C7.27955 14.3342 7.27733 14.3328 7.27496 14.3313C7.27175 14.3292 7.26827 14.3269 7.26433 14.3259L7.28717 14.3314C7.24791 14.3198 7.21018 14.3035 7.17479 14.2828C7.10672 14.2398 7.05007 14.1863 7.00165 14.1222C6.9016 13.9968 6.82165 13.8324 6.73942 13.5697C6.65244 13.2951 6.39383 12.4477 6.18744 11.7714C6.06322 11.3643 5.95791 11.0193 5.92032 10.8984L3.68959 10.1454H3.68594C3.68594 10.1454 3.53792 10.0937 3.3826 9.9829C3.2291 9.8735 3.0153 9.67531 2.97419 9.34482C2.94906 9.14937 3.01667 8.96033 3.10073 8.83674C3.17153 8.73298 3.2626 8.64469 3.36843 8.57721C3.51005 8.47996 3.64668 8.42619 3.68978 8.41048C3.8905 8.32566 6.16352 7.36523 8.47403 6.39062L11.8464 4.96753C12.0185 4.89518 12.1799 4.82734 12.3295 4.76446C12.9976 4.48359 13.4303 4.30168 13.5367 4.25941H13.5385ZM13.9186 5.09615C13.9072 5.09615 13.9038 5.09615 13.9008 5.09727C13.8968 5.09878 13.8936 5.10236 13.872 5.1108C13.8327 5.12636 13.1388 5.4161 12.2 5.81113C11.3819 6.15736 10.3497 6.59292 9.29612 7.03754C9.14067 7.10314 8.98476 7.16894 8.82899 7.23468C6.40913 8.25542 4.02856 9.2606 4.02856 9.2606L4.0144 9.26564L3.99978 9.27296C3.99533 9.27506 3.99075 9.2769 3.98608 9.27845L3.99293 9.27983V9.28166L6.65902 10.1811L6.66085 10.1903L12.2233 6.73758C12.2233 6.73758 12.5106 6.59065 12.4978 6.79846C12.4978 6.79846 12.5586 6.83416 12.3768 7.00352L7.96557 11.1231L7.62294 13.3157L9.25385 11.8262L11.9537 13.9002C12.1022 13.9592 12.1305 13.9414 12.1662 13.913C12.1956 13.8895 12.2088 13.8659 12.2165 13.8521C12.2177 13.85 12.2187 13.8482 12.2196 13.8466L13.9095 5.18174V5.17671C13.9186 5.13733 13.9184 5.12757 13.9182 5.11485C13.9182 5.10978 13.9181 5.10423 13.9186 5.09615Z" fill="#5181B8"/>
</svg>
