<svg width="84" height="76" viewBox="0 0 84 76" fill="none" xmlns="http://www.w3.org/2000/svg">
<path d="M60.8586 0.67041C75.291 0.67041 83.8091 8.97522 83.8091 23.1913H66.1034V23.3364C57.8861 23.3364 51.2247 29.831 51.2247 37.8426C51.2247 45.8542 57.8861 52.3488 66.1034 52.3488H83.8091V53.6544C83.8091 67.6892 75.291 75.994 60.8586 75.994H23.0667C8.63429 75.994 0.116211 67.6892 0.116211 53.6544V23.01C0.116211 8.97522 8.63429 0.67041 23.0667 0.67041H60.8586ZM80.6845 29.429C82.4102 29.429 83.8091 30.7929 83.8091 32.4753V43.0649C83.789 44.7391 82.4018 46.0916 80.6845 46.1112H66.4382C62.2782 46.1657 58.6405 43.3888 57.6969 39.4383C57.2244 36.986 57.8877 34.4554 59.5091 32.5248C61.1306 30.5942 63.5443 29.4611 66.1034 29.429H80.6845ZM68.112 34.3249H66.7357C65.8908 34.3152 65.077 34.6356 64.476 35.2148C63.875 35.7939 63.5368 36.5835 63.5368 37.4074C63.5367 39.1359 64.963 40.5427 66.7357 40.5625H68.112C69.8787 40.5625 71.3109 39.1662 71.3109 37.4437C71.3109 35.7212 69.8787 34.3249 68.112 34.3249ZM43.5621 16.9536H19.9421C18.1898 16.9535 16.7636 18.3279 16.7432 20.0362C16.7432 21.7647 18.1694 23.1715 19.9421 23.1913H43.5621C45.3288 23.1913 46.761 21.795 46.761 20.0725C46.761 18.35 45.3288 16.9536 43.5621 16.9536Z" fill="url(#paint0_linear)"/>
<defs>
<linearGradient id="paint0_linear" x1="41.9626" y1="0.67041" x2="41.9626" y2="75.994" gradientUnits="userSpaceOnUse">
<stop stop-color="#5181B8"/>
<stop offset="1" stop-color="#7EBAFF"/>
</linearGradient>
</defs>
</svg>
