<svg width="19" height="19" viewBox="0 0 19 19" fill="none" xmlns="http://www.w3.org/2000/svg">
<path d="M9.5 3.85089C6.41674 3.85089 3.91027 6.35737 3.90603 9.44063C3.90603 10.4967 4.2029 11.5272 4.76272 12.4136L4.8942 12.6257L4.33013 14.6868L6.44643 14.1313L6.65 14.2542C7.5067 14.7632 8.49063 15.0346 9.49576 15.0346H9.5C12.579 15.0346 15.1533 12.5281 15.1533 9.44487C15.1533 7.95201 14.5087 6.54821 13.4527 5.49219C12.3924 4.43192 10.9929 3.85089 9.5 3.85089ZM12.7868 11.8411C12.6469 12.2355 11.9768 12.5917 11.6545 12.6384C11.1201 12.719 10.7045 12.6766 9.63996 12.2185C7.95625 11.4891 6.85357 9.79263 6.76875 9.68237C6.68393 9.5721 6.0817 8.77054 6.0817 7.94353C6.0817 7.11652 6.51429 6.70938 6.67121 6.53973C6.82388 6.37009 7.00625 6.32768 7.12076 6.32768C7.23103 6.32768 7.34554 6.32768 7.44308 6.33192C7.54487 6.33616 7.68482 6.29375 7.82054 6.62031C7.96049 6.95536 8.29554 7.78237 8.33795 7.86719C8.38036 7.95201 8.41005 8.04955 8.35067 8.15982C8.02835 8.80446 7.68482 8.77902 7.85871 9.07589C8.50759 10.1913 9.15647 10.5772 10.1446 11.0734C10.3143 11.1583 10.4118 11.1455 10.5094 11.031C10.6069 10.9208 10.9292 10.5391 11.0395 10.3737C11.1498 10.204 11.2643 10.2337 11.417 10.2888C11.5696 10.344 12.3967 10.7511 12.5663 10.8359C12.7359 10.9208 12.8462 10.9632 12.8886 11.031C12.9268 11.1116 12.9268 11.4509 12.7868 11.8411V11.8411ZM16.9643 0H2.03571C0.91183 0 0 0.91183 0 2.03571V16.9643C0 18.0882 0.91183 19 2.03571 19H16.9643C18.0882 19 19 18.0882 19 16.9643V2.03571C19 0.91183 18.0882 0 16.9643 0ZM9.49576 16.167C8.36763 16.167 7.26072 15.8828 6.28103 15.3484L2.71429 16.2857L3.66853 12.7996C3.07902 11.7817 2.76942 10.6239 2.76942 9.43638C2.77366 5.72969 5.78906 2.71429 9.49576 2.71429C11.294 2.71429 12.9819 3.41406 14.2542 4.68638C15.5223 5.95871 16.2857 7.64665 16.2857 9.44487C16.2857 13.1516 13.2025 16.167 9.49576 16.167Z" fill="#5181B8"/>
</svg>
