<svg width="1440" height="451" viewBox="0 0 1440 451" fill="none" xmlns="http://www.w3.org/2000/svg">
<path fill-rule="evenodd" clip-rule="evenodd" d="M0 39.8416L81.405 46.4819C161.595 53.1222 324.405 66.4027 486 79.6832C647.595 92.9638 810.405 106.244 972 92.9638C1133.59 79.6832 1296.41 39.8416 1376.6 19.9208L1458 0V415H1376.6C1296.41 415 1133.59 415 972 415C810.405 415 647.595 415 486 415C324.405 415 161.595 415 81.405 415H0V39.8416Z" fill="#7EBAFF"/>
<path fill-rule="evenodd" clip-rule="evenodd" d="M0 60.4737L81.405 67.386C161.595 74.2983 324.405 88.1228 486 101.947C647.595 115.772 810.405 129.597 972 115.772C1133.59 101.947 1296.41 60.4737 1376.6 39.7368L1458 19V451H1376.6C1296.41 451 1133.59 451 972 451C810.405 451 647.595 451 486 451C324.405 451 161.595 451 81.405 451H0V60.4737Z" fill="#5181B8"/>
</svg>
