<svg width="1438" height="453" viewBox="0 0 1438 453" fill="none" xmlns="http://www.w3.org/2000/svg">
<path fill-rule="evenodd" clip-rule="evenodd" d="M-2 30.1854L58 35.0993C118 40.0132 238 50.543 358 65.2848C478 80.7285 598 101.086 718 101.086C838 101.086 958 80.7285 1078 60.3709C1198 40.0132 1318 19.6556 1378 9.82781L1438 0V442H1378C1318 442 1198 442 1078 442C958 442 838 442 718 442C598 442 478 442 358 442C238 442 118 442 58 442H-2V30.1854Z" fill="#7EBAFF"/>
<path fill-rule="evenodd" clip-rule="evenodd" d="M-2 41.1854L58 46.0993C118 51.0132 238 61.543 358 76.2848C478 91.7285 598 112.086 718 112.086C838 112.086 958 91.7285 1078 71.3709C1198 51.0132 1318 30.6556 1378 20.8278L1438 11V453H1378C1318 453 1198 453 1078 453C958 453 838 453 718 453C598 453 478 453 358 453C238 453 118 453 58 453H-2V41.1854Z" fill="#5181B8"/>
</svg>
