<svg width="1440" height="1079" viewBox="0 0 1440 1079" fill="none" xmlns="http://www.w3.org/2000/svg">
<path fill-rule="evenodd" clip-rule="evenodd" d="M-75 0L-11.7917 25.2008C51.4167 50.4016 177.833 100.803 304.25 104.403C430.667 108.003 557.083 64.802 683.5 54.0017C809.917 43.2014 936.333 64.802 1062.75 72.0023C1189.17 79.2025 1315.58 72.0023 1378.79 68.4021L1442 64.802V896H1378.79C1315.58 896 1189.17 896 1062.75 896C936.333 896 809.917 896 683.5 896C557.083 896 430.667 896 304.25 896C177.833 896 51.4167 896 -11.7917 896H-75V0Z" fill="#7EBAFF"/>
<path fill-rule="evenodd" clip-rule="evenodd" d="M-115 15L-50.2083 44.9259C14.5833 74.8519 144.167 134.704 273.75 138.979C403.333 143.254 532.917 91.9524 662.5 79.127C792.083 66.3016 921.667 91.9524 1051.25 100.503C1180.83 109.053 1310.42 100.503 1375.21 96.2276L1440 91.9524V1079H1375.21C1310.42 1079 1180.83 1079 1051.25 1079C921.667 1079 792.083 1079 662.5 1079C532.917 1079 403.333 1079 273.75 1079C144.167 1079 14.5833 1079 -50.2083 1079H-115V15Z" fill="#5181B8"/>
</svg>
